<svg xmlns="http://www.w3.org/2000/svg" viewBox="0 0 512 512" style="enable-background:new 0 0 512 512" xml:space="preserve"><style>.st7{fill:#b9bdc2}.st12{fill:#c93a3a}.st20{fill:#fff}</style><circle cx="256.4" cy="254.8" style="fill:#e4c856" r="256" id="ICON"/><g id="Layer_8"><path class="st7" d="M109 310.6h78.5V389H109z"/><path style="fill:#da8b80" d="m99 313.4 49.6-60.9h81.9l-49.6 60.9z"/><path class="st20" d="M109 320.5h72.7V389H109z"/><path class="st7" d="m230.2 257.7 45.1 52.9V389h-90.1v-78.4z"/><path style="fill:#2b5f87" d="M215.9 355.3h23.8V389h-23.8z"/><path d="M281.3 313.4h-8.5l-42.6-50-42.6 50h-9.4l51.9-60.9 52 61c-.1 0-.4-.1-.8-.1z" style="fill:#ca6a46"/><circle cx="227.7" cy="316.7" r="16.7" style="fill:#1f3049"/><path class="st7" d="M225.7 297.6h3.9v38.2h-3.9z"/><path class="st7" d="M208.6 314.8h38.2v3.9h-38.2z"/><g><path style="fill:#75a897" d="m333.7 119.2 16.4 22.1V389h-32.9V141.3z"/><path class="st20" d="M247.9 245.4c0 5 4.1 9.1 9.1 9.1h151.1c5 0 9.1-4.1 9.1-9.1v-80.8c0-5-4.1-9.1-9.1-9.1H257c-5 0-9.1 4.1-9.1 9.1v80.8z"/><path class="st12" d="M314.7 178.4h-13v5.9H313v4.4h-11.3v10.8H297V174h17.8v4.4zM330.7 173.7c1.8 0 3.4.3 4.9.9 1.5.6 2.8 1.5 3.9 2.7 1.1 1.1 1.9 2.5 2.5 4.1.6 1.6.9 3.4.9 5.4 0 1.9-.3 3.7-.9 5.3-.6 1.6-1.4 3-2.5 4.2-1.1 1.2-2.4 2.1-3.9 2.7-1.5.6-3.1 1-4.9 1-1.8 0-3.4-.3-4.9-1-1.5-.6-2.8-1.5-3.9-2.7-1.1-1.2-1.9-2.5-2.5-4.2-.6-1.6-.9-3.4-.9-5.4 0-2 .3-3.8.9-5.4.6-1.6 1.5-3 2.6-4.1 1.1-1.1 2.4-2 3.9-2.6 1.4-.6 3-.9 4.8-.9zm0 22c1.1 0 2.1-.2 3-.6.9-.4 1.7-1 2.3-1.8.7-.8 1.2-1.7 1.5-2.8.4-1.1.5-2.4.5-3.7 0-1.4-.2-2.7-.6-3.8-.4-1.1-.9-2-1.5-2.8-.7-.8-1.4-1.3-2.3-1.7-.9-.4-1.9-.6-2.9-.6-1.1 0-2.1.2-3 .6-.9.4-1.7 1-2.4 1.7-.7.8-1.2 1.7-1.6 2.8-.4 1.1-.6 2.3-.6 3.7 0 1.4.2 2.6.6 3.7.4 1.1.9 2 1.5 2.8.7.8 1.4 1.4 2.3 1.8 1.1.5 2.1.7 3.2.7zM369.9 199.5h-5.1l-2.4-6.9c-.2-.5-.4-.9-.7-1.3-.3-.4-.6-.7-1-1-.4-.3-.8-.5-1.3-.7-.5-.2-1-.3-1.5-.3h-5.1v10.2H348V174h13.3c.6 0 1.2.1 1.8.2.6.1 1.1.3 1.6.5s1 .5 1.5.9c.4.4.8.8 1.1 1.2.3.4.6.9.8 1.4.2.5.4 1 .5 1.5.1.5.2 1.1.2 1.6 0 1.6-.4 2.9-1.1 4-.7 1.1-1.8 2-3.1 2.6 1.1.8 2 2.1 2.6 3.9l2.7 7.7zm-17.2-14.6h6.3c.9 0 1.6-.1 2.2-.2.6-.1 1.1-.3 1.5-.6.4-.3.7-.6.8-1.1.2-.4.3-1 .3-1.6 0-1.1-.4-2-1.1-2.5-.7-.5-1.8-.8-3.3-.8h-6.8v6.8z"/><g><path class="st12" d="M298.5 236.4c-1.8 0-3.4-.2-4.8-.7-1.4-.5-2.5-1.1-3.4-2-.9-.8-1.6-1.9-2.1-3-.5-1.2-.7-2.5-.8-3.9h4.6c.1.9.3 1.7.7 2.4.4.7.8 1.2 1.4 1.7.6.4 1.2.8 1.9 1 .7.2 1.5.3 2.3.3.8 0 1.5-.1 2.1-.2.6-.2 1.2-.4 1.6-.7.5-.3.8-.6 1-1 .2-.4.4-.9.4-1.4 0-.5-.1-1-.4-1.3-.2-.4-.6-.7-1.2-1-.5-.3-1.2-.6-2.1-.8-.9-.2-1.9-.5-3.2-.7-1.5-.3-2.7-.7-3.8-1.1-1.1-.4-1.9-.9-2.6-1.5-.7-.6-1.2-1.3-1.5-2-.3-.8-.5-1.6-.5-2.6 0-1.1.2-2.1.7-3 .4-.9 1.1-1.7 1.9-2.3.8-.7 1.8-1.2 2.9-1.5 1.1-.4 2.4-.6 3.8-.6 1.5 0 2.8.2 4 .6 1.2.4 2.2 1 3.1 1.7.9.7 1.6 1.7 2.1 2.7.5 1.1.8 2.3.8 3.7H303c-.3-2.9-2.1-4.3-5.2-4.3-1.5 0-2.7.3-3.5.8-.8.5-1.2 1.2-1.2 2.1 0 .4.1.7.3 1 .2.3.5.5.9.8.4.2.9.4 1.5.6.6.2 1.4.4 2.2.6.8.2 1.5.3 2.3.5.8.2 1.6.4 2.3.7.8.3 1.5.6 2.2 1 .7.4 1.3.9 1.8 1.4.5.5.9 1.2 1.2 1.9.3.7.4 1.6.4 2.6 0 1.2-.2 2.2-.7 3.2-.5 1-1.1 1.8-2 2.5-.9.7-1.9 1.2-3.1 1.6-1.2 0-2.5.2-3.9.2zM334.8 236h-5.3l-2.8-7.3h-8.9l-2.6 7.3h-5l9.8-25.5h4.5l10.3 25.5zm-9.6-11.4-3.1-8.1-2.9 8.1h6zM354 236h-16.4v-25.5h4.7v21.1H354v4.4zM377.7 236h-19.4v-25.5h18.9v4.4H363v5.8h13.2v4.3H363v6.6h14.7v4.4z"/></g></g></g></svg>